# xmcd
#
# Track frame offsets: 
#        150
#        17197
#        34973
#        48312
#        64009
#        80404
#        95435
#        110172
#        127809
#        141959
#
# Disc length: 2106 seconds
#
# Revision: 0
# Processed by: cddbd v1.5.1PL2 Copyright (c) Steve Scherf et al.
# Submitted via: ExactAudioCopy v0.95b2
#
DISCID=8608380a
DTITLE=Steve Wariner - I Got Dreams
DYEAR=1990
DGENRE=Country
TTITLE0=When I Could Go Home To You
TTITLE1=I Could Get Lucky Tonight
TTITLE2=Plano Texas Girl
TTITLE3=The Loser Wins
TTITLE4=Nothing In The World
TTITLE5=Flower That Shattered The Stone
TTITLE6=Language Of Love
TTITLE7=I Got Dreams
TTITLE8=Do You Want To Make Something Of It
TTITLE9=Where Did I Go Wrong
EXTD=
EXTT0=
EXTT1=
EXTT2=
EXTT3=
EXTT4=
EXTT5=
EXTT6=
EXTT7=
EXTT8=
EXTT9=
PLAYORDER=
